PathFileType	4	(X/Y/Z)	s10c0103.trc
DataRate	CameraRate	NumFrames	NumMarkers	Units	OrigDataRate	OrigDataStartFrame	OrigNumFrames
200	200	4	50	mm	200	1250	2000
Frame#	Time	racr			lacr			c7			jug			rlel			rdr			llel			ldr			s2			lic			ric			lasi			rasi			rpsi			lpsi			rgt			lgt			rth1			rth2			rth3			rth4			rlfc			rmfc			rsh1			rsh2			rsh3			rsh4			rlmal			rmmal			rcal			rtoe			rmt5			lth1			lth2			lth4			lth3			llfc			lmfc			llmal			lmmal			lcal			lmt5			lsh1			lsh2			lsh3			lsh4			ltoe			SBIKE			LBIKE			RBIKE			
		X1	Y1	Z1	X2	Y2	Z2	X3	Y3	Z3	X4	Y4	Z4	X5	Y5	Z5	X6	Y6	Z6	X7	Y7	Z7	X8	Y8	Z8	X9	Y9	Z9	X10	Y10	Z10	X11	Y11	Z11	X12	Y12	Z12	X13	Y13	Z13	X14	Y14	Z14	X15	Y15	Z15	X16	Y16	Z16	X17	Y17	Z17	X18	Y18	Z18	X19	Y19	Z19	X20	Y20	Z20	X21	Y21	Z21	X22	Y22	Z22	X23	Y23	Z23	X24	Y24	Z24	X25	Y25	Z25	X26	Y26	Z26	X27	Y27	Z27	X28	Y28	Z28	X29	Y29	Z29	X30	Y30	Z30	X31	Y31	Z31	X32	Y32	Z32	X33	Y33	Z33	X34	Y34	Z34	X35	Y35	Z35	X36	Y36	Z36	X37	Y37	Z37	X38	Y38	Z38	X39	Y39	Z39	X40	Y40	Z40	X41	Y41	Z41	X42	Y42	Z42	X43	Y43	Z43	X44	Y44	Z44	X45	Y45	Z45	X46	Y46	Z46	X47	Y47	Z47	X48	Y48	Z48	X49	Y49	Z49	X50	Y50	Z50	
1250	6.2500	448.620076	1295.548076	-91.285335	429.971713	1298.540000	-379.315706	377.645025	1337.604967	-237.628157	415.369214	1201.195803	-251.963277	503.189394	1046.294135	10.078444	642.719409	875.886626	-54.043351	483.448090	1038.184971	-481.546725	635.843214	883.089242	-413.200615	-122.382756	1076.344667	-206.094722	33.292799	1103.620187	-367.924474	59.231493	1109.099724	-75.564793	72.535459	1019.869963	-333.291558	69.283587	1023.729083	-78.921874	-83.710665	1137.722021	-148.800076	-84.133725	1144.991031	-265.213274	-36.037629	981.125014	-20.224748	-33.184432	962.475080	-406.535974	38.423107	852.681279	-6.920103	100.660066	791.676337	-25.982085	121.867141	710.103142	-41.703215	131.525881	812.708693	-32.537942	189.366203	625.382476	-63.947275	162.937271	611.347090	-176.617148	152.625747	516.876626	-27.654393	172.456205	430.846441	-39.624654	148.055750	347.974107	-41.351430	200.650396	432.896093	-65.943417	141.866561	243.424907	-53.709654	163.405373	262.528782	-135.674784	93.078689	220.604451	-100.608199	335.648540	218.847041	-103.636871	257.502371	183.122597	-39.604814	90.071102	919.689554	-412.827835	175.506068	927.375957	-397.053073	180.117067	961.018779	-381.929253	255.968653	889.427779	-392.501585	354.132593	843.124573	-365.536993	342.462143	820.273474	-243.845772	76.408287	590.615776	-378.694066	87.349258	575.390383	-299.056207	24.524154	610.763864	-335.229056	74.636304	441.582443	-400.283031	263.825737	762.259971	-403.770166	221.573002	687.203775	-388.851313	144.519022	641.871533	-390.198375	241.681617	670.867961	-360.992756	143.186566	386.454068	-344.161806	-217.486624	831.710521	-213.663325	-103.815184	80.409598	-418.222915	-103.818277	80.313971	-18.295889	
1251	6.2550	449.346926	1296.219532	-94.896409	428.334140	1297.889135	-382.523679	377.135485	1337.504114	-240.044616	414.956438	1201.116762	-254.315205	504.538691	1047.329931	8.596290	642.930649	875.825058	-53.923334	482.755235	1037.110612	-483.005806	635.507272	883.461182	-413.547466	-120.339514	1076.675320	-200.408002	32.547936	1105.158353	-367.325649	60.506613	1108.955404	-74.848455	73.044923	1021.818501	-333.045986	70.040927	1023.910199	-79.526146	-81.839722	1137.827355	-146.624366	-84.781919	1145.306356	-262.492770	-34.628454	980.960177	-20.448037	-32.866125	965.206721	-405.728973	36.767523	852.272087	-6.369506	97.638552	789.531295	-24.937644	116.852006	707.324106	-39.728694	128.913226	809.798235	-32.058845	180.548358	620.884357	-62.554985	155.225239	606.697431	-175.317227	144.841174	512.720448	-26.752263	165.555157	426.844082	-38.834133	141.411264	343.858217	-40.686824	193.057231	429.116746	-65.672409	134.620340	238.764317	-53.381899	155.895812	257.401251	-135.071758	85.611112	217.010318	-100.584771	328.138194	210.912562	-103.622813	249.390338	176.613062	-39.561279	91.345485	925.008614	-412.914007	176.717096	935.486596	-397.632443	180.272332	968.790790	-380.597865	257.904162	899.362896	-392.330175	359.082635	856.451316	-365.702444	349.407599	832.505842	-242.084545	87.906540	597.268421	-379.345538	99.109062	581.635462	-299.221098	36.648945	617.718425	-335.448504	83.798533	447.713686	-399.962355	271.910628	773.125378	-403.066008	230.649689	696.810486	-388.175215	155.047193	650.535529	-390.104232	251.274151	681.302696	-360.080770	151.552511	391.410071	-344.139852	-217.324597	830.804737	-215.295368	-103.844524	80.443068	-418.261039	-103.871239	80.327787	-18.341541	
1252	6.2600	449.927874	1296.682157	-98.688763	426.602327	1297.123281	-385.692851	376.812721	1337.444416	-242.264283	414.144234	1200.921165	-256.507526	505.755038	1048.199255	7.200637	642.991867	875.383224	-53.751395	482.244454	1036.047606	-484.349577	635.190155	883.830662	-413.976633	-120.254237	1075.568210	-202.528024	31.889293	1107.094568	-366.695900	61.314916	1109.564511	-73.249948	73.870466	1025.141551	-334.196117	70.857990	1024.223327	-80.591298	-80.169222	1138.176681	-144.801194	-84.697571	1145.380467	-260.652739	-33.384954	980.975123	-20.947526	-32.783936	968.839151	-405.122383	35.368614	852.228802	-5.455127	94.579574	787.978478	-23.663241	111.886117	705.100338	-37.400040	126.291380	807.329883	-31.494536	172.020905	617.188314	-60.604029	147.508029	602.764550	-173.736387	136.692487	509.513419	-25.623736	157.834815	423.726856	-37.794579	134.278076	340.438135	-39.637659	185.263743	426.042604	-64.749717	127.170050	235.085090	-52.902982	148.330395	253.348217	-134.185727	77.799949	214.836651	-100.501001	320.284517	203.606674	-103.449125	240.748746	170.793178	-39.503393	92.390545	930.780367	-413.269866	177.147247	943.259141	-397.261816	179.944846	976.057786	-379.805076	259.475942	909.068362	-391.768946	363.718596	869.167761	-364.990361	355.508298	845.942864	-241.010588	99.687057	604.202986	-381.278225	110.966602	588.176381	-299.595300	48.754965	624.220802	-335.736205	93.723259	453.449983	-399.847762	279.716353	784.163674	-402.254563	240.047109	707.065100	-387.628558	165.639761	658.923570	-390.015095	261.635826	692.831987	-360.828219	160.371075	396.068527	-344.261541	-217.351984	831.917284	-214.167751	-103.850299	80.488086	-418.307610	-103.907101	80.326291	-18.368190	
1253	6.2650	450.473297	1297.146633	-102.360320	424.747309	1296.206674	-388.899000	376.670058	1337.328936	-244.444374	413.267037	1200.582730	-258.437179	506.730098	1048.928814	5.921242	643.151908	875.301298	-53.775930	481.286647	1035.054043	-486.157139	634.902969	884.177803	-414.329070	-118.299608	1077.191320	-199.257853	31.427695	1109.361385	-366.092835	63.569408	1109.412305	-73.244980	73.956585	1027.498262	-334.074489	71.683660	1024.741150	-81.814696	-78.690621	1138.754440	-143.309631	-84.472211	1145.711715	-258.833230	-32.561890	982.281503	-20.589368	-32.949037	973.124498	-404.699415	33.927221	852.620276	-4.424441	91.868474	786.745326	-22.285916	106.840694	703.509080	-35.166279	123.679793	805.554130	-30.690128	163.858664	614.029824	-58.437979	141.358245	598.958741	-172.386296	128.574752	506.755743	-24.510234	149.851294	421.092158	-36.597401	126.572476	337.902960	-38.381632	177.440333	423.507891	-63.434935	119.561063	232.170882	-52.489665	140.856662	249.751140	-133.406762	70.010218	212.835618	-100.332212	312.146650	196.776902	-103.291041	231.891050	165.552312	-39.395334	93.187512	936.525832	-413.753531	177.497496	950.711862	-396.776356	179.493564	983.408343	-379.106783	260.626669	918.245191	-391.421786	367.984635	881.313896	-363.092364	360.884635	859.460950	-239.111532	110.295380	610.093405	-381.285448	120.273563	593.908976	-300.841358	59.768277	629.845322	-336.192396	103.898067	458.758103	-399.690315	287.063007	795.493656	-401.596399	249.912415	717.724599	-387.337351	176.253331	666.672805	-388.897407	270.366810	702.752244	-358.715910	169.810322	400.868032	-344.240671	-218.529627	831.538304	-212.910021	-103.894403	80.470069	-418.296790	-103.912522	80.319612	-18.390747	
